<?xml version="1.0" standalone="no"?>
<!DOCTYPE svg PUBLIC "-//W3C//DTD SVG 20010904//EN"
 "http://www.w3.org/TR/2001/REC-SVG-20010904/DTD/svg10.dtd">
<svg version="1.0" xmlns="http://www.w3.org/2000/svg"
 width="126.000000pt" height="177.000000pt" viewBox="0 0 126.000000 177.000000"
 preserveAspectRatio="xMidYMid meet">

<g transform="translate(0.000000,177.000000) scale(0.100000,-0.100000)"
fill="#000000" stroke="none">
<path d="M590 1651 c-5 -11 -10 -38 -10 -61 0 -23 5 -50 10 -61 8 -15 7 -19
-4 -19 -12 0 -14 -7 -10 -29 l6 -29 -38 8 c-42 10 -81 -3 -94 -30 -5 -8 -16
-32 -26 -52 -10 -21 -22 -38 -26 -38 -8 0 -16 -61 -21 -157 -3 -70 -2 -73 20
-73 12 0 27 9 33 20 6 11 15 20 20 20 32 0 -22 -123 -60 -135 -53 -17 -130
-154 -130 -231 0 -20 -12 -64 -26 -100 -14 -35 -23 -68 -20 -73 4 -5 -7 -23
-24 -39 -16 -17 -30 -35 -30 -42 0 -6 -7 -22 -16 -35 -12 -19 -14 -31 -6 -52
6 -15 11 -22 11 -15 1 7 8 20 16 28 27 28 18 -24 -10 -54 -25 -27 -33 -74 -16
-100 9 -15 31 -13 111 10 30 9 68 19 83 23 19 4 27 11 23 20 -4 10 5 14 35 13
23 0 46 5 52 11 13 13 31 15 23 2 -7 -10 20 -9 30 2 4 4 24 7 44 7 34 0 127
28 180 54 28 15 54 10 43 -7 -4 -7 -9 -20 -10 -31 -2 -13 1 -17 14 -12 9 4 20
1 25 -6 6 -10 8 -9 8 4 0 9 -5 18 -12 20 -7 3 -9 11 -3 24 7 17 8 18 12 1 3
-9 9 -15 14 -12 5 4 9 1 9 -4 0 -11 27 -10 46 2 7 4 17 0 24 -8 7 -8 17 -15
23 -15 5 0 2 9 -8 20 -15 17 -16 20 -3 20 17 0 28 -20 28 -51 0 -18 10 -23 39
-20 7 2 10 -2 7 -8 -4 -5 -2 -12 4 -16 19 -12 0 -24 -23 -16 -12 5 -45 12 -73
15 -42 6 -51 5 -51 -8 0 -11 8 -14 31 -10 23 4 27 3 17 -4 -11 -8 -5 -12 25
-17 21 -3 59 -10 84 -15 91 -18 110 -19 110 -10 0 5 -20 15 -45 21 -25 6 -48
15 -51 20 -7 12 -15 14 96 -20 29 -9 30 -9 30 25 0 31 -3 34 -29 34 -17 0 -32
4 -35 9 -3 4 5 6 18 4 34 -7 39 19 20 103 -15 72 -17 74 -52 84 -21 5 -43 10
-49 10 -20 0 -15 -18 8 -31 17 -9 19 -13 8 -19 -18 -12 -26 -5 -34 29 -4 21
-16 32 -46 44 -62 25 -47 52 35 61 26 2 51 8 55 12 3 4 -6 4 -21 2 -21 -4 -28
-1 -28 11 0 10 -3 12 -8 5 -10 -15 -62 -27 -62 -15 0 28 27 58 68 79 26 12 53
22 60 22 8 0 12 16 12 45 0 45 0 45 -20 25 -24 -24 -39 -25 -55 -3 -10 13 -8
28 7 77 11 34 24 69 29 78 6 11 4 39 -4 75 -8 32 -12 76 -9 98 3 33 9 43 35
56 26 13 32 22 33 50 4 81 16 146 34 171 12 16 16 29 10 33 -13 8 -13 72 0 80
6 3 10 15 10 26 0 18 -2 19 -21 5 -26 -18 -49 -11 -44 15 4 20 -11 27 -17 8
-2 -6 -17 -12 -33 -13 -44 -4 -95 -26 -95 -42 0 -20 6 -18 46 12 19 15 37 24
40 22 3 -3 -18 -22 -45 -41 -35 -25 -48 -31 -45 -19 7 22 -18 -6 -64 -72 -27
-40 -35 -46 -47 -36 -8 7 -15 9 -15 4 0 -4 -7 1 -16 12 -11 13 -17 15 -20 7
-4 -8 -20 2 -45 28 -38 40 -46 58 -31 73 4 4 8 28 8 52 1 35 -3 48 -19 59 -29
20 -54 19 -67 -4z m60 -9 c0 -4 -11 -9 -26 -10 -14 -1 -23 2 -19 8 7 12 45 14
45 2z m367 -138 c-3 -3 -12 -4 -19 -1 -8 3 -5 6 6 6 11 1 17 -2 13 -5z m-538
-255 c25 -34 19 -49 -29 -74 -26 -13 -27 -13 -25 10 3 24 24 95 29 95 1 0 12
-14 25 -31z m501 -59 c0 -10 -4 -22 -10 -25 -6 -4 -10 7 -10 25 0 18 4 29 10
25 6 -3 10 -15 10 -25z m-385 10 c-3 -5 -12 -10 -18 -10 -7 0 -6 4 3 10 19 12
23 12 15 0z m44 -13 c9 -11 5 -14 -20 -15 -29 -1 -30 0 -13 13 11 8 20 15 20
15 1 0 7 -6 13 -13z m-79 -15 c0 -5 -9 -17 -20 -27 -19 -17 -19 -17 -7 9 12
25 27 35 27 18z m-150 -6 c0 -3 -4 -8 -10 -11 -5 -3 -10 -1 -10 4 0 6 5 11 10
11 6 0 10 -2 10 -4z m355 -16 c3 -5 1 -10 -4 -10 -6 0 -11 5 -11 10 0 6 2 10
4 10 3 0 8 -4 11 -10z m95 -251 l35 -30 -42 27 c-24 15 -43 28 -43 30 0 11 18
0 50 -27z m60 -49 c0 -5 -4 -10 -10 -10 -5 0 -10 5 -10 10 0 6 5 10 10 10 6 0
10 -4 10 -10z m-188 -137 c-10 -4 -10 -8 0 -21 10 -11 10 -16 1 -19 -7 -2 -9
-11 -6 -19 3 -8 2 -14 -1 -14 -7 0 -46 38 -46 44 0 12 33 36 48 35 11 0 13 -2
4 -6z m-296 -28 c33 -17 40 -52 13 -60 -11 -4 -19 -11 -19 -16 0 -5 10 -3 23
6 13 8 27 12 32 8 4 -5 5 -2 1 4 -5 9 -2 11 8 7 13 -5 13 -11 -4 -44 -22 -42
-64 -58 -91 -34 -23 21 -52 18 -44 -5 3 -10 -1 -24 -10 -31 -8 -7 -15 -19 -15
-26 0 -19 -7 -18 -31 5 -24 22 -20 32 38 112 18 24 39 54 48 67 19 26 16 26
51 7z m354 1 c0 -2 -9 -6 -20 -9 -11 -3 -20 -1 -20 4 0 5 9 9 20 9 11 0 20 -2
20 -4z m25 -5 c3 -5 1 -12 -5 -16 -5 -3 -10 1 -10 9 0 18 6 21 15 7z m-130
-41 c-3 -5 -11 -10 -16 -10 -6 0 -7 5 -4 10 3 6 11 10 16 10 6 0 7 -4 4 -10z
m-17 -42 c8 -8 15 -8 24 -1 16 13 52 13 40 1 -5 -5 -16 -10 -25 -12 -21 -3
-47 -26 -47 -42 0 -8 -5 -14 -11 -14 -5 0 -9 -8 -7 -17 1 -10 -2 -20 -7 -21
-6 -2 -15 -8 -21 -12 -5 -5 -23 -6 -40 -1 -46 12 -44 44 8 91 44 41 66 48 86
28z m92 -18 c0 -5 -2 -10 -4 -10 -3 0 -8 5 -11 10 -3 6 -1 10 4 10 6 0 11 -4
11 -10z m-30 -20 c0 -5 -5 -10 -11 -10 -5 0 -7 5 -4 10 3 6 8 10 11 10 2 0 4
-4 4 -10z m155 -30 c-3 -5 -10 -10 -16 -10 -5 0 -9 5 -9 10 0 6 7 10 16 10 8
0 12 -4 9 -10z m178 -7 c4 -3 1 -13 -6 -21 -9 -12 -9 -16 1 -19 7 -3 17 -14
23 -25 11 -20 11 -20 -14 -2 -18 13 -25 27 -24 46 2 28 8 34 20 21z m-587 -50
c-7 -7 -26 7 -26 19 0 6 6 6 15 -2 9 -7 13 -15 11 -17z m-96 -33 c8 -5 11 -12
8 -16 -4 -3 -14 1 -23 10 -18 17 -9 21 15 6z m150 -30 c0 -4 -11 -7 -25 -7
-26 0 -35 22 -12 30 13 5 37 -10 37 -23z m458 -18 c8 -6 2 -9 -18 -9 -20 0
-26 3 -18 9 7 4 15 8 18 8 3 0 11 -4 18 -8z m-818 -16 c0 -3 -4 -8 -10 -11 -5
-3 -10 -1 -10 4 0 6 5 11 10 11 6 0 10 -2 10 -4z"/>
<path d="M355 590 c4 -6 11 -8 16 -4 6 3 16 -2 24 -12 7 -11 17 -16 21 -12 12
12 -17 38 -43 38 -14 0 -21 -4 -18 -10z"/>
<path d="M610 529 c0 -5 5 -7 10 -4 6 3 10 8 10 11 0 2 -4 4 -10 4 -5 0 -10
-5 -10 -11z"/>
<path d="M945 619 c-4 -6 -5 -12 -2 -15 2 -3 7 2 10 11 7 17 1 20 -8 4z"/>
<path d="M825 390 c-17 -18 -17 -20 -1 -20 9 0 15 4 12 9 -4 5 0 11 6 14 7 2
10 7 7 11 -3 3 -14 -3 -24 -14z"/>
<path d="M862 386 c-1 -20 4 -25 31 -29 38 -6 42 -4 29 19 -6 11 -11 13 -16 5
-12 -19 -28 -12 -21 9 4 13 2 20 -7 20 -8 0 -15 -11 -16 -24z"/>
<path d="M667 388 c-16 -6 -24 -14 -21 -21 5 -8 2 -8 -7 1 -18 17 -26 15 -32
-9 -5 -18 -2 -20 16 -15 12 4 43 9 70 13 43 5 67 23 31 23 -8 0 -12 5 -9 10 8
12 -11 12 -48 -2z"/>
<path d="M750 345 c0 -8 7 -15 15 -15 9 0 12 6 9 15 -4 8 -10 15 -15 15 -5 0
-9 -7 -9 -15z"/>
<path d="M470 320 c0 -5 5 -10 10 -10 6 0 10 5 10 10 0 6 -4 10 -10 10 -5 0
-10 -4 -10 -10z"/>
<path d="M598 303 c7 -3 16 -2 19 1 4 3 -2 6 -13 5 -11 0 -14 -3 -6 -6z"/>
<path d="M1123 180 c-5 -18 -14 -20 -87 -22 -44 0 -66 -3 -48 -5 39 -5 42 -20
5 -25 -20 -2 -28 -9 -28 -22 0 -11 6 -21 13 -23 7 -3 12 4 12 16 0 28 27 27
33 -1 3 -14 5 -9 6 15 1 25 6 37 15 37 10 0 16 -13 19 -37 l4 -38 1 38 c2 28
6 37 20 37 10 0 23 -5 29 -11 8 -8 13 -8 17 0 15 24 35 10 39 -26 l4 -38 1 38
c1 20 7 37 13 37 6 0 -3 11 -19 25 -36 30 -42 31 -49 5z m35 -9 c3 -8 -1 -12
-9 -9 -7 2 -15 10 -17 17 -3 8 1 12 9 9 7 -2 15 -10 17 -17z"/>
<path d="M73 153 c19 -5 17 -30 -2 -25 -6 1 -11 0 -11 -3 0 -13 33 -55 43 -55
5 0 3 8 -6 18 -19 21 -13 32 15 32 12 0 18 -7 18 -22 0 -32 9 -17 12 20 2 32
3 32 55 32 49 0 71 -12 41 -23 -21 -6 12 -39 33 -34 10 3 20 0 23 -7 2 -6 5 6
5 27 1 47 21 49 21 2 0 -19 5 -35 10 -35 6 0 10 16 10 35 0 35 0 35 45 35 25
0 45 -4 45 -8 0 -17 -13 -21 -31 -9 -24 15 -44 -3 -34 -32 9 -29 23 -26 17 4
-2 15 0 25 7 25 6 0 11 -4 11 -10 0 -5 6 -10 14 -10 8 0 17 -8 19 -17 3 -10 5
-1 6 20 1 47 21 49 21 2 0 -48 17 -44 22 5 l4 40 -216 -1 c-118 -1 -207 -3
-197 -6z m57 -13 c0 -5 -7 -10 -15 -10 -8 0 -15 5 -15 10 0 6 7 10 15 10 8 0
15 -4 15 -10z m160 -10 c0 -20 -25 -38 -36 -27 -7 6 18 47 28 47 5 0 8 -9 8
-20z"/>
<path d="M593 153 c9 -2 17 -9 17 -15 0 -6 -8 -17 -17 -24 -15 -10 -16 -15 -5
-26 11 -11 16 -10 26 5 16 21 36 22 36 2 0 -8 5 -15 10 -15 6 0 10 16 10 35 0
31 3 35 25 35 17 0 23 -4 19 -15 -4 -8 -10 -12 -15 -9 -16 9 -9 -10 12 -35 11
-13 22 -21 26 -18 3 4 1 12 -5 20 -14 17 -4 57 14 57 8 0 14 -9 14 -20 0 -28
30 -38 46 -15 7 10 11 22 8 26 -3 5 2 9 10 9 11 0 16 -11 18 -37 l1 -38 4 35
c3 19 10 38 16 42 7 4 -55 7 -138 7 -82 -1 -142 -3 -132 -6z m57 -18 c0 -8 -7
-15 -15 -15 -8 0 -15 7 -15 15 0 8 7 15 15 15 8 0 15 -7 15 -15z m150 -6 c0
-24 -23 -21 -28 4 -2 10 3 17 12 17 10 0 16 -9 16 -21z"/>
<path d="M1090 116 c0 -32 10 -56 22 -56 6 0 5 7 -2 15 -9 11 -10 19 -2 27 12
12 35 1 27 -13 -4 -5 -1 -9 5 -9 6 0 10 8 8 18 -2 10 -12 17 -26 16 -15 0 -21
4 -18 13 3 7 1 13 -4 13 -6 0 -10 -11 -10 -24z"/>
<path d="M165 120 c-8 -13 12 -50 27 -50 9 0 9 3 0 12 -19 19 -14 36 11 41 19
4 19 4 -5 6 -15 0 -30 -3 -33 -9z"/>
</g>
</svg>
